<?xml version="1.0" encoding="UTF-8" standalone="no"?>
<svg
   viewBox="0 0 31 31"
   version="1.1"
   id="svg4"
   sodipodi:docname="favicon.svg"
   width="31"
   height="31"
   inkscape:version="1.1 (c68e22c387, 2021-05-23)"
   xmlns:inkscape="http://www.inkscape.org/namespaces/inkscape"
   xmlns:sodipodi="http://sodipodi.sourceforge.net/DTD/sodipodi-0.dtd"
   xmlns="http://www.w3.org/2000/svg"
   xmlns:svg="http://www.w3.org/2000/svg">
  <defs
     id="defs8" />
  <sodipodi:namedview
     id="namedview6"
     pagecolor="#ffffff"
     bordercolor="#666666"
     borderopacity="1.0"
     inkscape:pageshadow="2"
     inkscape:pageopacity="0.0"
     inkscape:pagecheckerboard="0"
     showgrid="false"
     fit-margin-top="0"
     fit-margin-left="0"
     fit-margin-right="0"
     fit-margin-bottom="0"
     inkscape:zoom="7.84375"
     inkscape:cx="41.051793"
     inkscape:cy="38.310757"
     inkscape:window-width="2560"
     inkscape:window-height="1017"
     inkscape:window-x="1912"
     inkscape:window-y="-8"
     inkscape:window-maximized="1"
     inkscape:current-layer="svg4" />
  <rect
     style="fill:none;stroke-width:9.80944"
     id="rect847"
     width="31"
     height="31"
     x="5.2402527e-14"
     y="0"
     inkscape:export-filename="C:\Users\aborr\Desktop\trash\favicon.png"
     inkscape:export-xdpi="96"
     inkscape:export-ydpi="96" />
  <path
     d="M 3.4444444,1.1801681 H 27.555556 A 3.4444444,3.4444444 0 0 1 31,4.6246125 V 25.291279 a 3.4444444,3.4444444 0 0 1 -3.444444,3.444445 H 3.4444444 A 3.4444444,3.4444444 0 0 1 0,25.291279 V 4.6246125 A 3.4444444,3.4444444 0 0 1 3.4444444,1.1801681 m 0,6.8888888 V 14.957946 H 13.777778 V 8.0690569 H 3.4444444 m 13.7777776,0 V 14.957946 H 27.555556 V 8.0690569 H 17.222222 M 3.4444444,18.40239 v 6.888889 H 13.777778 V 18.40239 H 3.4444444 m 13.7777776,0 v 6.888889 H 27.555556 V 18.40239 Z"
     id="path2"
     style="stroke-width:1.72222;fill:#7e56c2;fill-opacity:1"
     inkscape:export-filename="C:\Users\aborr\Desktop\trash\favicon.png"
     inkscape:export-xdpi="96"
     inkscape:export-ydpi="96" />
</svg>
